<svg width="22" height="17" viewBox="0 0 22 17" fill="none" xmlns="http://www.w3.org/2000/svg">
<path d="M1 0C0.447715 0 0 0.447715 0 1C0 1.55228 0.447715 2 1 2V0ZM3.22222 1L4.21928 0.923304C4.1792 0.402306 3.74476 0 3.22222 0V1ZM21 4.33333L21.9939 4.44376C22.0253 4.16106 21.9348 3.87836 21.7451 3.66641C21.5554 3.45447 21.2844 3.33333 21 3.33333V4.33333ZM3.47863 4.33333L2.48158 4.41003L3.47863 4.33333ZM18.2275 14.452L18.1563 13.4545L18.2275 14.452ZM6.31738 15.3027L6.24613 14.3053L6.31738 15.3027ZM1 2H3.22222V0H1V2ZM6.38863 16.3002L18.2988 15.4495L18.1563 13.4545L6.24613 14.3053L6.38863 16.3002ZM21.0667 12.7884L21.9939 4.44376L20.0061 4.2229L19.0789 12.5675L21.0667 12.7884ZM2.22517 1.0767L2.48158 4.41003L4.47569 4.25664L4.21928 0.923304L2.22517 1.0767ZM2.48158 4.41003L3.18372 13.5379L5.17783 13.3845L4.47569 4.25664L2.48158 4.41003ZM21 3.33333H3.47863V5.33333H21V3.33333ZM18.2988 15.4495C19.7426 15.3463 20.9069 14.227 21.0667 12.7884L19.0789 12.5675C19.0257 13.0471 18.6376 13.4202 18.1563 13.4545L18.2988 15.4495ZM6.24613 14.3053C5.69738 14.3445 5.22003 13.933 5.17783 13.3845L3.18372 13.5379C3.31031 15.1835 4.74237 16.4178 6.38863 16.3002L6.24613 14.3053Z" fill="#FAFCFE"/>
</svg>
